<svg width="172" height="104" viewBox="0 0 172 104" fill="none" xmlns="http://www.w3.org/2000/svg">
<g filter="url(#filter0_i_266_429)">
<rect x="0.398438" y="0.397705" width="171.025" height="102.934" rx="19.0499" fill="#08415C"/>
</g>
<path d="M74.2522 14.445C70.2694 14.8777 65.9011 15.8692 63.6688 16.8608C61.4365 17.8703 60.3766 19.0061 59.7663 21.1154C59.4451 22.2151 59.413 22.792 59.3166 30.3098L59.2203 38.3323L58.61 40.3154C57.9355 42.569 56.2974 46.2107 54.8359 48.7346C53.8884 50.3932 53.6957 50.8619 54.0008 50.8619C54.4184 50.8619 56.8916 46.9498 57.9194 44.6422C59.7823 40.4416 59.959 39.3059 60.1196 30.1295C60.232 23.423 60.2802 22.7379 60.5853 21.6202C61.0511 19.9796 62.1431 18.6275 63.717 17.7802C65.596 16.7706 69.5146 15.761 74.0113 15.1481C76.1955 14.8416 81.2864 14.8777 83.5669 15.2202C84.5787 15.3644 85.4459 15.4546 85.478 15.4185C86.1525 14.6793 78.4438 14.0123 74.2522 14.445Z" fill="#EBFFE1"/>
<path d="M62.4633 46.5529C61.9494 46.643 61.4836 46.7512 61.4354 46.8053C61.3873 46.8593 62.1742 46.8954 63.186 46.8954C64.1977 46.8954 65.7876 46.9855 66.7352 47.0757C70.5092 47.4723 74.733 49.185 74.733 50.3208C74.733 50.8977 73.93 51.0779 70.7983 51.2402C67.7148 51.4025 65.354 51.6188 62.8487 51.9613C60.5361 52.2858 60.3755 52.3219 60.5843 52.4661C60.6967 52.5563 60.1185 52.8447 59.1228 53.1872C55.959 54.323 54.3691 55.4949 54.0158 57.0092C53.6625 58.4875 54.5618 60.1101 56.5051 61.4802C58.5768 62.9585 60.8894 63.7337 66.5585 64.8335C68.3572 65.194 72.1473 65.9692 74.9738 66.5461C77.8004 67.123 81.5262 67.8983 83.2607 68.2408C89.2671 69.4487 91.9169 70.8549 92.5272 73.1986C92.9126 74.5867 92.7039 75.4521 91.7885 76.5157C90.2788 78.2645 86.9223 79.5805 82.2008 80.2836C80.4502 80.536 67.9397 80.6262 67.7309 80.3738C67.6666 80.3017 67.7951 79.5986 68.036 78.8053C69.4975 73.9557 66.96 69.5028 60.8733 66.2757C56.5854 63.9861 51.5105 62.8684 45.5041 62.8684C41.9549 62.8864 40.1401 63.0667 36.9924 63.7878C30.9539 65.1399 25.879 68.1507 23.7752 71.576C23.3095 72.3693 23.3255 72.3512 24.3052 71.2335C27.3244 67.8261 32.7366 65.3923 39.2408 64.545C41.6658 64.2205 47.078 64.2746 49.5994 64.6532C53.534 65.2301 57.6453 66.6543 60.6003 68.4932C62.3669 69.5929 64.5189 71.8825 65.2577 73.4329C65.7395 74.4425 65.7876 74.6949 65.8037 76.0831C65.8037 77.309 65.7234 77.8318 65.4504 78.5349C64.8562 79.9772 64.6956 80.1214 63.6517 79.9772C60.8894 79.5986 54.4012 77.9941 50.1615 76.6239C49.23 76.3174 48.3306 76.029 48.154 75.9749C47.3349 75.7225 48.2985 76.3355 49.8884 77.0926C52.8756 78.4808 56.7942 79.5986 61.6442 80.4279C62.8648 80.6262 63.9247 80.8425 63.9729 80.8966C64.2138 81.185 60.793 83.8893 59.1068 84.7546C56.5211 86.0707 52.9237 87.1884 49.4869 87.7293C47.5116 88.0538 41.5695 88.0898 39.2729 87.8014C34.4229 87.2065 29.6049 85.4217 26.393 83.0419C25.4133 82.3028 23.7752 80.5541 23.1328 79.5264C22.9722 79.2741 23.0043 79.4183 23.2131 79.851C23.7431 80.9867 25.1724 82.6814 26.5536 83.8532C29.4764 86.269 33.379 87.9096 38.6145 88.9191C41.4731 89.46 47.1422 89.5862 50.3221 89.1896C57.2278 88.2882 62.4472 85.9805 65.9482 82.2487L67.1367 80.9687L68.8872 81.167C71.248 81.4374 79.3261 81.4374 81.719 81.167C87.9502 80.4459 92.3987 78.5349 93.5229 76.1011C94.6471 73.6493 93.6675 71.3056 90.8891 69.7912C88.8013 68.6374 84.7221 67.6459 70.5574 64.8335C59.6689 62.6701 59.1549 62.5259 57.292 61.1557C55.67 60.0019 54.7706 58.4515 55.0276 57.3157C55.3167 56.0177 56.1839 55.2605 58.4001 54.287C61.3712 52.9889 64.2298 52.4301 69.5938 52.1236C81.7029 51.4385 90.9212 52.7005 96.9918 55.9095C97.7627 56.3061 98.4212 56.5946 98.4533 56.5585C98.5336 56.4684 96.6867 55.1703 95.5304 54.5033C92.19 52.6284 87.0348 51.5827 79.7115 51.2943C77.8967 51.2402 76.371 51.1501 76.3068 51.096C76.2426 51.0599 76.2908 50.8436 76.4192 50.6092C76.6441 50.2306 76.628 50.1585 76.3229 49.7078C75.5359 48.5901 71.8261 47.1298 68.7105 46.7331C66.6709 46.4627 63.4911 46.3726 62.4633 46.5529Z" fill="#EBFFE1"/>
<path d="M38.3391 50.6636C37.8894 50.8799 37.6806 51.2766 37.9215 51.3667C38.034 51.4028 38.5318 51.7813 39.0457 52.214C40.186 53.1875 41.0853 54.6118 40.9729 55.2788C40.8605 55.9098 41.2138 56.0901 42.5628 56.0901C43.7673 56.0901 46.4814 55.6754 47.1399 55.387C48.2159 54.9363 48.5049 53.9988 47.8947 52.9171C47.0917 51.4568 44.8754 50.6816 41.1656 50.5735C39.8005 50.5374 38.5158 50.5735 38.3391 50.6636ZM43.6388 51.3306C45.5821 51.8715 46.8669 53.1695 46.5457 54.2332C46.3208 54.9363 45.5339 55.3149 43.8155 55.5492C43.0286 55.6574 42.2095 55.7836 42.0168 55.8377C41.7277 55.8918 41.6474 55.8377 41.6474 55.5673C41.6474 55.2067 42.0168 55.0264 42.9322 54.9904C43.3176 54.9723 43.2052 54.9183 42.5307 54.8281C41.8401 54.7199 41.5029 54.5757 41.2941 54.2873C40.7159 53.494 40.8765 53.3859 42.5628 53.3859C43.414 53.3859 44.0724 53.3498 44.0403 53.2957C43.9921 53.2597 43.2052 53.1515 42.2577 53.0613C40.9087 52.9352 40.459 52.827 40.0575 52.5025C39.2224 51.8354 39.5596 51.7092 41.792 51.8354C42.9001 51.9075 43.7673 51.9256 43.7352 51.8895C43.687 51.8354 42.6752 51.7092 41.4868 51.6011C38.7567 51.3487 38.2749 51.2585 38.2749 51.0061C38.2749 50.6997 42.2898 50.952 43.6388 51.3306Z" fill="#EBFFE1"/>
<path d="M51.6105 53.4755C51.6105 53.8 50.6308 55.6028 50.1009 56.2338C49.7636 56.6484 49.7636 56.6665 50.0687 56.9189C50.5666 57.3155 50.7593 57.2253 51.1447 56.378C51.3375 55.9453 51.755 55.1882 52.0923 54.6834L52.7025 53.8L52.2529 53.4935C51.6908 53.1329 51.6105 53.1329 51.6105 53.4755Z" fill="#EBFFE1"/>
<path d="M104.922 55.3148C104.922 56.0179 106.255 57.3881 107.379 57.8568C109.515 58.7582 112.839 58.8303 116.405 58.0732C118.268 57.6765 118.348 57.6585 118.926 57.965C119.649 58.3616 119.922 59.0467 119.601 59.7318C119.295 60.3808 118.99 60.4529 117.673 60.2185C117.031 60.1103 116.035 60.0382 115.457 60.0923C114.333 60.1644 113.899 60.4529 113.674 61.2641C113.466 62.0574 114.879 63.067 115.152 62.3098C115.2 62.1475 115.12 61.9132 114.943 61.787C114.67 61.5526 114.67 61.5165 114.927 61.0658C115.264 60.4889 115.939 60.4529 117.77 60.8856C119.199 61.2101 119.825 61.1199 120.355 60.4889C121.158 59.5334 120.693 57.2619 119.584 56.7932C118.99 56.5408 117.85 56.5948 115.489 56.9915C114.317 57.1898 112.647 57.352 111.779 57.352H110.222L108.021 56.0901C105.596 54.7019 104.922 54.5216 104.922 55.3148Z" fill="#EBFFE1"/>
<path d="M130.379 62.8865C123.859 63.4814 118.27 65.3563 114.657 68.1687C113.003 69.4487 111.348 71.4318 110.69 72.9462C109.967 74.5868 109.855 76.678 110.385 78.4268C112.039 83.9614 119.234 88.1981 128.757 89.2798C131.214 89.5502 137.317 89.3879 139.614 88.9913C141.846 88.6127 145.106 87.6392 147.082 86.7738L148.688 86.0707L148.736 85.2234L148.784 84.3761L147.949 84.8628C145.813 86.0707 141.332 87.3507 137.526 87.8375C133.72 88.3062 128.163 87.9998 124.373 87.0803C118.045 85.5299 112.89 81.9783 111.654 78.2645C111.397 77.5073 111.332 76.9665 111.381 75.9209C111.461 73.9918 112.007 72.802 113.677 70.9631C116.327 68.0425 120.422 66.0234 125.963 64.9237C128.805 64.3468 135.406 64.2025 138.522 64.6532C141.284 65.0499 144.416 65.9332 146.712 66.9789C147.724 67.4296 148.591 67.8082 148.655 67.8082C148.736 67.8082 148.768 67.4656 148.736 67.051L148.688 66.2938L147.403 65.6808C143.099 63.6437 135.535 62.3997 130.379 62.8865Z" fill="#EBFFE1"/>
<path d="M97.9302 67.4294C97.6572 67.5555 97.6572 67.5736 98.0587 67.6998C99.0705 67.9702 98.139 68.4029 96.8863 68.2226C96.4849 68.1685 96.0352 68.0423 95.8906 67.9522C95.6337 67.826 95.6016 67.8801 95.6016 68.457C95.6016 69.0519 95.6337 69.106 95.9709 68.9978C96.6936 68.7634 97.6733 68.6733 98.0748 68.7815C98.5566 68.9077 98.6369 69.3584 98.2193 69.4846C98.0587 69.5387 98.6208 69.5747 99.4559 69.5747C100.516 69.5927 100.869 69.5387 100.628 69.4305C100.098 69.1781 100.179 68.9257 100.821 68.7815C101.367 68.6733 102.138 68.7454 102.957 68.9978C103.294 69.106 103.326 69.0699 103.278 68.6012L103.23 68.0964L101.833 68.1505C100.821 68.1865 100.42 68.1325 100.42 67.9882C100.42 67.862 100.564 67.7358 100.757 67.6817C101.014 67.6096 101.03 67.5375 100.869 67.4294C100.612 67.231 98.3638 67.2491 97.9302 67.4294Z" fill="#EBFFE1"/>
<path d="M98.5342 71.0712C96.2376 71.4858 94.7601 73.4509 95.5952 74.9652C96.1252 75.9027 96.6391 76.1731 97.9239 76.1912C99.2729 76.1912 100.044 75.8847 100.349 75.1816C100.943 73.9016 99.3693 72.5134 97.9399 73.0362C96.9282 73.4148 96.8479 74.4424 97.7954 74.8571C98.3575 75.0914 98.5342 74.9112 98.3093 74.3703C98.0524 73.7574 98.4539 73.2526 98.9678 73.559C99.3693 73.8114 99.3853 74.1359 99.0641 74.821C98.7751 75.4881 98.0684 75.8126 97.4903 75.5782C96.35 75.0914 96.4785 72.7478 97.699 72.0447C98.2772 71.7021 99.8671 71.5038 100.654 71.6661C102.292 72.0086 103.336 74.3703 102.517 75.8667C102.051 76.75 101.361 77.0745 100.253 76.9303C99.1605 76.7861 99.289 76.5337 98.9035 79.6706C98.5502 82.6092 98.502 82.4109 99.562 82.4109H100.477L100.365 81.7258C100.317 81.3653 100.22 80.3917 100.172 79.5985L100.06 78.1382L100.847 78.012C103.368 77.5793 104.91 75.3619 104.139 73.2526C103.593 71.7923 100.75 70.6745 98.5342 71.0712Z" fill="#EBFFE1"/>
<path d="M43.1368 73.9558C42.5907 74.1361 42.125 74.713 42.125 75.2178C42.125 75.7406 42.7674 76.4437 43.4098 76.642L44.0361 76.8403L43.9398 77.7237C43.8595 78.4629 43.8916 78.6251 44.1004 78.6251C44.4858 78.6251 44.5661 78.3367 44.4537 77.273C44.3413 76.3536 44.3091 76.2815 43.9076 76.2815C43.3455 76.2815 42.7674 75.8127 42.7674 75.362C42.7674 74.8031 43.6186 73.9378 44.1646 73.9378C44.8391 73.9378 45.337 74.4065 45.337 75.0375C45.337 75.6324 44.9836 75.9029 44.6143 75.5603C44.3413 75.3079 44.2931 74.8392 44.534 74.8392C44.6303 74.8392 44.6946 74.9654 44.6946 75.1277C44.6946 75.2899 44.7909 75.38 44.9033 75.326C45.2888 75.1817 45.0961 74.7491 44.6143 74.695C44.3091 74.6409 44.0843 74.731 43.9398 74.9474C43.4098 75.7586 45.1121 76.3355 45.7545 75.5423C46.0275 75.1998 46.0275 75.1277 45.8027 74.695C45.3691 73.8296 44.3734 73.5592 43.1368 73.9558Z" fill="#EBFFE1"/>
<path d="M132.175 73.9378C131.918 74.0279 131.613 74.1902 131.485 74.3164C131.148 74.6229 131.196 75.5062 131.565 75.7406C132.047 76.011 132.288 75.9569 131.999 75.6324C131.565 75.1637 131.678 74.5327 132.24 74.1902C133.171 73.6493 134.36 74.2623 134.36 75.2899C134.36 75.9389 134.022 76.2815 133.412 76.2815C132.834 76.2815 132.818 76.2995 132.641 77.8499C132.545 78.535 132.577 78.6251 132.85 78.6251C133.123 78.6251 133.171 78.4809 133.219 77.6877C133.267 76.8223 133.3 76.7502 133.765 76.606C134.922 76.2815 135.307 74.9654 134.456 74.2443C133.974 73.8476 132.85 73.6854 132.175 73.9378Z" fill="#EBFFE1"/>
<path d="M132.07 75.0011C132.07 75.4698 132.215 75.4878 132.488 75.0732C132.793 74.5864 132.954 74.947 132.648 75.4698C132.343 75.9926 132.6 76.1008 133.13 75.6681C133.548 75.3075 133.259 74.7667 132.568 74.6946C132.151 74.6405 132.07 74.6946 132.07 75.0011Z" fill="#EBFFE1"/>
<path d="M98.4923 83.6549C98.0587 83.7451 97.9945 83.7992 98.2193 83.9073C99.1187 84.304 97.2557 84.5924 96.1155 84.2318C95.6016 84.0696 95.6016 84.0696 95.6016 84.6645C95.6016 85.2594 95.6176 85.2775 96.0673 85.0972C96.6615 84.8628 98.3638 84.953 98.4441 85.2234C98.4763 85.3496 98.2996 85.5299 98.0587 85.62C97.7054 85.7642 97.9945 85.8003 99.3756 85.8003C100.741 85.8003 101.046 85.7642 100.709 85.62C99.6808 85.2054 100.532 84.8268 102.122 84.989C103.198 85.0972 103.407 84.989 103.23 84.3941C103.15 84.1056 103.069 84.0876 102.732 84.2138C101.801 84.6285 99.9216 84.304 100.58 83.8532C101.014 83.5468 99.6647 83.4206 98.4923 83.6549Z" fill="#EBFFE1"/>
<defs>
<filter id="filter0_i_266_429" x="0.398438" y="0.397705" width="171.025" height="107.964" filterUnits="userSpaceOnUse" color-interpolation-filters="sRGB">
<feFlood flood-opacity="0" result="BackgroundImageFix"/>
<feBlend mode="normal" in="SourceGraphic" in2="BackgroundImageFix" result="shape"/>
<feColorMatrix in="SourceAlpha" type="matrix" values="0 0 0 0 0 0 0 0 0 0 0 0 0 0 0 0 0 0 127 0" result="hardAlpha"/>
<feOffset dy="5.03015"/>
<feGaussianBlur stdDeviation="12.5754"/>
<feComposite in2="hardAlpha" operator="arithmetic" k2="-1" k3="1"/>
<feColorMatrix type="matrix" values="0 0 0 0 0 0 0 0 0 0 0 0 0 0 0 0 0 0 0.2 0"/>
<feBlend mode="normal" in2="shape" result="effect1_innerShadow_266_429"/>
</filter>
</defs>
</svg>
